<svg height="4062" width="720" xmlns="http://www.w3.org/2000/svg">
<rect height="4062" fill="#555" width="720"></rect>
<text fill="#7f7" font-family="Courier New" font-size="12" xml:space="preserve">
<tspan x="10" y="26">126 megabytes installed</tspan>
<tspan x="10" y="42"></tspan>
<tspan x="10" y="58">node_modules</tspan>
<tspan x="10" y="74">└─┬ npm-scripts-gui@0.0.24 </tspan>
<tspan x="10" y="90">  ├─┬ chalk@1.1.3 </tspan>
<tspan x="10" y="106">  │ ├── ansi-styles@2.2.1 </tspan>
<tspan x="10" y="122">  │ ├── escape-string-regexp@1.0.5 </tspan>
<tspan x="10" y="138">  │ ├─┬ has-ansi@2.0.0 </tspan>
<tspan x="10" y="154">  │ │ └── ansi-regex@2.1.1 </tspan>
<tspan x="10" y="170">  │ ├── strip-ansi@3.0.1 </tspan>
<tspan x="10" y="186">  │ └── supports-color@2.0.0 </tspan>
<tspan x="10" y="202">  ├─┬ chokidar@1.6.1 </tspan>
<tspan x="10" y="218">  │ ├─┬ anymatch@1.3.0 </tspan>
<tspan x="10" y="234">  │ │ ├── arrify@1.0.1 </tspan>
<tspan x="10" y="250">  │ │ └─┬ micromatch@2.3.11 </tspan>
<tspan x="10" y="266">  │ │   ├─┬ arr-diff@2.0.0 </tspan>
<tspan x="10" y="282">  │ │   │ └── arr-flatten@1.0.3 </tspan>
<tspan x="10" y="298">  │ │   ├── array-unique@0.2.1 </tspan>
<tspan x="10" y="314">  │ │   ├─┬ braces@1.8.5 </tspan>
<tspan x="10" y="330">  │ │   │ ├─┬ expand-range@1.8.2 </tspan>
<tspan x="10" y="346">  │ │   │ │ └─┬ fill-range@2.2.3 </tspan>
<tspan x="10" y="362">  │ │   │ │   ├── is-number@2.1.0 </tspan>
<tspan x="10" y="378">  │ │   │ │   ├── isobject@2.1.0 </tspan>
<tspan x="10" y="394">  │ │   │ │   ├── randomatic@1.1.6 </tspan>
<tspan x="10" y="410">  │ │   │ │   └── repeat-string@1.6.1 </tspan>
<tspan x="10" y="426">  │ │   │ ├── preserve@0.2.0 </tspan>
<tspan x="10" y="442">  │ │   │ └── repeat-element@1.1.2 </tspan>
<tspan x="10" y="458">  │ │   ├─┬ expand-brackets@0.1.5 </tspan>
<tspan x="10" y="474">  │ │   │ └── is-posix-bracket@0.1.1 </tspan>
<tspan x="10" y="490">  │ │   ├── extglob@0.3.2 </tspan>
<tspan x="10" y="506">  │ │   ├── filename-regex@2.0.0 </tspan>
<tspan x="10" y="522">  │ │   ├─┬ kind-of@3.2.0 </tspan>
<tspan x="10" y="538">  │ │   │ └── is-buffer@1.1.5 </tspan>
<tspan x="10" y="554">  │ │   ├─┬ normalize-path@2.1.1 </tspan>
<tspan x="10" y="570">  │ │   │ └── remove-trailing-separator@1.0.1 </tspan>
<tspan x="10" y="586">  │ │   ├─┬ object.omit@2.0.1 </tspan>
<tspan x="10" y="602">  │ │   │ ├─┬ for-own@0.1.5 </tspan>
<tspan x="10" y="618">  │ │   │ │ └── for-in@1.0.2 </tspan>
<tspan x="10" y="634">  │ │   │ └── is-extendable@0.1.1 </tspan>
<tspan x="10" y="650">  │ │   ├─┬ parse-glob@3.0.4 </tspan>
<tspan x="10" y="666">  │ │   │ ├── glob-base@0.3.0 </tspan>
<tspan x="10" y="682">  │ │   │ └── is-dotfile@1.0.2 </tspan>
<tspan x="10" y="698">  │ │   └─┬ regex-cache@0.4.3 </tspan>
<tspan x="10" y="714">  │ │     ├── is-equal-shallow@0.1.3 </tspan>
<tspan x="10" y="730">  │ │     └── is-primitive@2.0.0 </tspan>
<tspan x="10" y="746">  │ ├── async-each@1.0.1 </tspan>
<tspan x="10" y="762">  │ ├── glob-parent@2.0.0 </tspan>
<tspan x="10" y="778">  │ ├── inherits@2.0.3 </tspan>
<tspan x="10" y="794">  │ ├─┬ is-binary-path@1.0.1 </tspan>
<tspan x="10" y="810">  │ │ └── binary-extensions@1.8.0 </tspan>
<tspan x="10" y="826">  │ ├─┬ is-glob@2.0.1 </tspan>
<tspan x="10" y="842">  │ │ └── is-extglob@1.0.0 </tspan>
<tspan x="10" y="858">  │ ├── path-is-absolute@1.0.1 </tspan>
<tspan x="10" y="874">  │ └─┬ readdirp@2.1.0 </tspan>
<tspan x="10" y="890">  │   ├── graceful-fs@4.1.11 </tspan>
<tspan x="10" y="906">  │   ├─┬ minimatch@3.0.3 </tspan>
<tspan x="10" y="922">  │   │ └─┬ brace-expansion@1.1.7 </tspan>
<tspan x="10" y="938">  │   │   ├── balanced-match@0.4.2 </tspan>
<tspan x="10" y="954">  │   │   └── concat-map@0.0.1 </tspan>
<tspan x="10" y="970">  │   ├─┬ readable-stream@2.2.9 </tspan>
<tspan x="10" y="986">  │   │ ├── buffer-shims@1.0.0 </tspan>
<tspan x="10" y="1002">  │   │ ├── core-util-is@1.0.2 </tspan>
<tspan x="10" y="1018">  │   │ ├── isarray@1.0.0 </tspan>
<tspan x="10" y="1034">  │   │ ├── process-nextick-args@1.0.7 </tspan>
<tspan x="10" y="1050">  │   │ ├── string_decoder@1.0.0 </tspan>
<tspan x="10" y="1066">  │   │ └── util-deprecate@1.0.2 </tspan>
<tspan x="10" y="1082">  │   └── set-immediate-shim@1.0.1 </tspan>
<tspan x="10" y="1098">  ├─┬ cubbie@0.0.8 </tspan>
<tspan x="10" y="1114">  │ ├── lodash.clonedeep@4.5.0 </tspan>
<tspan x="10" y="1130">  │ ├── lodash.findlastindex@4.6.0 </tspan>
<tspan x="10" y="1146">  │ ├── lodash.foreach@4.5.0 </tspan>
<tspan x="10" y="1162">  │ └── lodash.isarray@4.0.0 </tspan>
<tspan x="10" y="1178">  ├─┬ electron-prebuilt@0.35.6 </tspan>
<tspan x="10" y="1194">  │ ├─┬ electron-download@1.4.1 </tspan>
<tspan x="10" y="1210">  │ │ ├─┬ debug@2.6.4 </tspan>
<tspan x="10" y="1226">  │ │ │ └── ms@0.7.3 </tspan>
<tspan x="10" y="1242">  │ │ ├── home-path@1.0.5 </tspan>
<tspan x="10" y="1258">  │ │ ├── minimist@1.2.0 </tspan>
<tspan x="10" y="1274">  │ │ ├─┬ mkdirp@0.5.1 </tspan>
<tspan x="10" y="1290">  │ │ │ └── minimist@0.0.8 </tspan>
<tspan x="10" y="1306">  │ │ ├─┬ mv@2.1.1 </tspan>
<tspan x="10" y="1322">  │ │ │ ├── ncp@2.0.0 </tspan>
<tspan x="10" y="1338">  │ │ │ └─┬ rimraf@2.4.5 </tspan>
<tspan x="10" y="1354">  │ │ │   └─┬ glob@6.0.4 </tspan>
<tspan x="10" y="1370">  │ │ │     ├─┬ inflight@1.0.6 </tspan>
<tspan x="10" y="1386">  │ │ │     │ └── wrappy@1.0.2 </tspan>
<tspan x="10" y="1402">  │ │ │     └── once@1.4.0 </tspan>
<tspan x="10" y="1418">  │ │ ├─┬ nugget@1.6.2 </tspan>
<tspan x="10" y="1434">  │ │ │ ├─┬ pretty-bytes@1.0.4 </tspan>
<tspan x="10" y="1450">  │ │ │ │ ├── get-stdin@4.0.1 </tspan>
<tspan x="10" y="1466">  │ │ │ │ └─┬ meow@3.7.0 </tspan>
<tspan x="10" y="1482">  │ │ │ │   ├─┬ camelcase-keys@2.1.0 </tspan>
<tspan x="10" y="1498">  │ │ │ │   │ └── camelcase@2.1.1 </tspan>
<tspan x="10" y="1514">  │ │ │ │   ├── decamelize@1.2.0 </tspan>
<tspan x="10" y="1530">  │ │ │ │   ├─┬ loud-rejection@1.6.0 </tspan>
<tspan x="10" y="1546">  │ │ │ │   │ ├─┬ currently-unhandled@0.4.1 </tspan>
<tspan x="10" y="1562">  │ │ │ │   │ │ └── array-find-index@1.0.2 </tspan>
<tspan x="10" y="1578">  │ │ │ │   │ └── signal-exit@3.0.2 </tspan>
<tspan x="10" y="1594">  │ │ │ │   ├── map-obj@1.0.1 </tspan>
<tspan x="10" y="1610">  │ │ │ │   ├─┬ normalize-package-data@2.3.8 </tspan>
<tspan x="10" y="1626">  │ │ │ │   │ ├── hosted-git-info@2.4.2 </tspan>
<tspan x="10" y="1642">  │ │ │ │   │ ├─┬ is-builtin-module@1.0.0 </tspan>
<tspan x="10" y="1658">  │ │ │ │   │ │ └── builtin-modules@1.1.1 </tspan>
<tspan x="10" y="1674">  │ │ │ │   │ ├── semver@5.3.0 </tspan>
<tspan x="10" y="1690">  │ │ │ │   │ └─┬ validate-npm-package-license@3.0.1 </tspan>
<tspan x="10" y="1706">  │ │ │ │   │   ├─┬ spdx-correct@1.0.2 </tspan>
<tspan x="10" y="1722">  │ │ │ │   │   │ └── spdx-license-ids@1.2.2 </tspan>
<tspan x="10" y="1738">  │ │ │ │   │   └── spdx-expression-parse@1.0.4 </tspan>
<tspan x="10" y="1754">  │ │ │ │   ├── object-assign@4.1.1 </tspan>
<tspan x="10" y="1770">  │ │ │ │   ├─┬ read-pkg-up@1.0.1 </tspan>
<tspan x="10" y="1786">  │ │ │ │   │ ├─┬ find-up@1.1.2 </tspan>
<tspan x="10" y="1802">  │ │ │ │   │ │ ├── path-exists@2.1.0 </tspan>
<tspan x="10" y="1818">  │ │ │ │   │ │ └─┬ pinkie-promise@2.0.1 </tspan>
<tspan x="10" y="1834">  │ │ │ │   │ │   └── pinkie@2.0.4 </tspan>
<tspan x="10" y="1850">  │ │ │ │   │ └─┬ read-pkg@1.1.0 </tspan>
<tspan x="10" y="1866">  │ │ │ │   │   ├─┬ load-json-file@1.1.0 </tspan>
<tspan x="10" y="1882">  │ │ │ │   │   │ ├─┬ parse-json@2.2.0 </tspan>
<tspan x="10" y="1898">  │ │ │ │   │   │ │ └─┬ error-ex@1.3.1 </tspan>
<tspan x="10" y="1914">  │ │ │ │   │   │ │   └── is-arrayish@0.2.1 </tspan>
<tspan x="10" y="1930">  │ │ │ │   │   │ ├── pify@2.3.0 </tspan>
<tspan x="10" y="1946">  │ │ │ │   │   │ └─┬ strip-bom@2.0.0 </tspan>
<tspan x="10" y="1962">  │ │ │ │   │   │   └── is-utf8@0.2.1 </tspan>
<tspan x="10" y="1978">  │ │ │ │   │   └── path-type@1.1.0 </tspan>
<tspan x="10" y="1994">  │ │ │ │   ├─┬ redent@1.0.0 </tspan>
<tspan x="10" y="2010">  │ │ │ │   │ ├─┬ indent-string@2.1.0 </tspan>
<tspan x="10" y="2026">  │ │ │ │   │ │ └─┬ repeating@2.0.1 </tspan>
<tspan x="10" y="2042">  │ │ │ │   │ │   └─┬ is-finite@1.0.2 </tspan>
<tspan x="10" y="2058">  │ │ │ │   │ │     └── number-is-nan@1.0.1 </tspan>
<tspan x="10" y="2074">  │ │ │ │   │ └── strip-indent@1.0.1 </tspan>
<tspan x="10" y="2090">  │ │ │ │   └── trim-newlines@1.0.0 </tspan>
<tspan x="10" y="2106">  │ │ │ ├─┬ progress-stream@1.2.0 </tspan>
<tspan x="10" y="2122">  │ │ │ │ ├── speedometer@0.1.4 </tspan>
<tspan x="10" y="2138">  │ │ │ │ └─┬ through2@0.2.3 </tspan>
<tspan x="10" y="2154">  │ │ │ │   ├─┬ readable-stream@1.1.14 </tspan>
<tspan x="10" y="2170">  │ │ │ │   │ ├── isarray@0.0.1 </tspan>
<tspan x="10" y="2186">  │ │ │ │   │ └── string_decoder@0.10.31 </tspan>
<tspan x="10" y="2202">  │ │ │ │   └─┬ xtend@2.1.2 </tspan>
<tspan x="10" y="2218">  │ │ │ │     └── object-keys@0.4.0 </tspan>
<tspan x="10" y="2234">  │ │ │ ├─┬ request@2.81.0 </tspan>
<tspan x="10" y="2250">  │ │ │ │ ├── aws-sign2@0.6.0 </tspan>
<tspan x="10" y="2266">  │ │ │ │ ├── aws4@1.6.0 </tspan>
<tspan x="10" y="2282">  │ │ │ │ ├── caseless@0.12.0 </tspan>
<tspan x="10" y="2298">  │ │ │ │ ├─┬ combined-stream@1.0.5 </tspan>
<tspan x="10" y="2314">  │ │ │ │ │ └── delayed-stream@1.0.0 </tspan>
<tspan x="10" y="2330">  │ │ │ │ ├── extend@3.0.0 </tspan>
<tspan x="10" y="2346">  │ │ │ │ ├── forever-agent@0.6.1 </tspan>
<tspan x="10" y="2362">  │ │ │ │ ├─┬ form-data@2.1.4 </tspan>
<tspan x="10" y="2378">  │ │ │ │ │ └── asynckit@0.4.0 </tspan>
<tspan x="10" y="2394">  │ │ │ │ ├─┬ har-validator@4.2.1 </tspan>
<tspan x="10" y="2410">  │ │ │ │ │ ├─┬ ajv@4.11.7 </tspan>
<tspan x="10" y="2426">  │ │ │ │ │ │ ├── co@4.6.0 </tspan>
<tspan x="10" y="2442">  │ │ │ │ │ │ └─┬ json-stable-stringify@1.0.1 </tspan>
<tspan x="10" y="2458">  │ │ │ │ │ │   └── jsonify@0.0.0 </tspan>
<tspan x="10" y="2474">  │ │ │ │ │ └── har-schema@1.0.5 </tspan>
<tspan x="10" y="2490">  │ │ │ │ ├─┬ hawk@3.1.3 </tspan>
<tspan x="10" y="2506">  │ │ │ │ │ ├── boom@2.10.1 </tspan>
<tspan x="10" y="2522">  │ │ │ │ │ ├── cryptiles@2.0.5 </tspan>
<tspan x="10" y="2538">  │ │ │ │ │ ├── hoek@2.16.3 </tspan>
<tspan x="10" y="2554">  │ │ │ │ │ └── sntp@1.0.9 </tspan>
<tspan x="10" y="2570">  │ │ │ │ ├─┬ http-signature@1.1.1 </tspan>
<tspan x="10" y="2586">  │ │ │ │ │ ├── assert-plus@0.2.0 </tspan>
<tspan x="10" y="2602">  │ │ │ │ │ ├─┬ jsprim@1.4.0 </tspan>
<tspan x="10" y="2618">  │ │ │ │ │ │ ├── assert-plus@1.0.0 </tspan>
<tspan x="10" y="2634">  │ │ │ │ │ │ ├── extsprintf@1.0.2 </tspan>
<tspan x="10" y="2650">  │ │ │ │ │ │ ├── json-schema@0.2.3 </tspan>
<tspan x="10" y="2666">  │ │ │ │ │ │ └── verror@1.3.6 </tspan>
<tspan x="10" y="2682">  │ │ │ │ │ └─┬ sshpk@1.13.0 </tspan>
<tspan x="10" y="2698">  │ │ │ │ │   ├── asn1@0.2.3 </tspan>
<tspan x="10" y="2714">  │ │ │ │ │   ├── assert-plus@1.0.0 </tspan>
<tspan x="10" y="2730">  │ │ │ │ │   ├── bcrypt-pbkdf@1.0.1 </tspan>
<tspan x="10" y="2746">  │ │ │ │ │   ├─┬ dashdash@1.14.1 </tspan>
<tspan x="10" y="2762">  │ │ │ │ │   │ └── assert-plus@1.0.0 </tspan>
<tspan x="10" y="2778">  │ │ │ │ │   ├── ecc-jsbn@0.1.1 </tspan>
<tspan x="10" y="2794">  │ │ │ │ │   ├─┬ getpass@0.1.7 </tspan>
<tspan x="10" y="2810">  │ │ │ │ │   │ └── assert-plus@1.0.0 </tspan>
<tspan x="10" y="2826">  │ │ │ │ │   ├── jodid25519@1.0.2 </tspan>
<tspan x="10" y="2842">  │ │ │ │ │   ├── jsbn@0.1.1 </tspan>
<tspan x="10" y="2858">  │ │ │ │ │   └── tweetnacl@0.14.5 </tspan>
<tspan x="10" y="2874">  │ │ │ │ ├── is-typedarray@1.0.0 </tspan>
<tspan x="10" y="2890">  │ │ │ │ ├── isstream@0.1.2 </tspan>
<tspan x="10" y="2906">  │ │ │ │ ├── json-stringify-safe@5.0.1 </tspan>
<tspan x="10" y="2922">  │ │ │ │ ├─┬ mime-types@2.1.15 </tspan>
<tspan x="10" y="2938">  │ │ │ │ │ └── mime-db@1.27.0 </tspan>
<tspan x="10" y="2954">  │ │ │ │ ├── oauth-sign@0.8.2 </tspan>
<tspan x="10" y="2970">  │ │ │ │ ├── performance-now@0.2.0 </tspan>
<tspan x="10" y="2986">  │ │ │ │ ├── qs@6.4.0 </tspan>
<tspan x="10" y="3002">  │ │ │ │ ├── safe-buffer@5.0.1 </tspan>
<tspan x="10" y="3018">  │ │ │ │ ├── stringstream@0.0.5 </tspan>
<tspan x="10" y="3034">  │ │ │ │ ├─┬ tough-cookie@2.3.2 </tspan>
<tspan x="10" y="3050">  │ │ │ │ │ └── punycode@1.4.1 </tspan>
<tspan x="10" y="3066">  │ │ │ │ ├── tunnel-agent@0.6.0 </tspan>
<tspan x="10" y="3082">  │ │ │ │ └── uuid@3.0.1 </tspan>
<tspan x="10" y="3098">  │ │ │ ├── single-line-log@0.4.1 </tspan>
<tspan x="10" y="3114">  │ │ │ └── throttleit@0.0.2 </tspan>
<tspan x="10" y="3130">  │ │ ├── path-exists@1.0.0 </tspan>
<tspan x="10" y="3146">  │ │ └─┬ rc@1.2.1 </tspan>
<tspan x="10" y="3162">  │ │   ├── deep-extend@0.4.1 </tspan>
<tspan x="10" y="3178">  │ │   ├── ini@1.3.4 </tspan>
<tspan x="10" y="3194">  │ │   └── strip-json-comments@2.0.1 </tspan>
<tspan x="10" y="3210">  │ └─┬ extract-zip@1.6.0 </tspan>
<tspan x="10" y="3226">  │   ├─┬ concat-stream@1.5.0 </tspan>
<tspan x="10" y="3242">  │   │ ├─┬ readable-stream@2.0.6 </tspan>
<tspan x="10" y="3258">  │   │ │ └── string_decoder@0.10.31 </tspan>
<tspan x="10" y="3274">  │   │ └── typedarray@0.0.6 </tspan>
<tspan x="10" y="3290">  │   ├── debug@0.7.4 </tspan>
<tspan x="10" y="3306">  │   ├─┬ mkdirp@0.5.0 </tspan>
<tspan x="10" y="3322">  │   │ └── minimist@0.0.8 </tspan>
<tspan x="10" y="3338">  │   └─┬ yauzl@2.4.1 </tspan>
<tspan x="10" y="3354">  │     └─┬ fd-slicer@1.0.1 </tspan>
<tspan x="10" y="3370">  │       └── pend@1.2.0 </tspan>
<tspan x="10" y="3386">  ├── fangs@0.0.11 </tspan>
<tspan x="10" y="3402">  ├── lodash@4.17.4 </tspan>
<tspan x="10" y="3418">  ├─┬ ps-tree@1.1.0 </tspan>
<tspan x="10" y="3434">  │ └─┬ event-stream@3.3.4 </tspan>
<tspan x="10" y="3450">  │   ├── duplexer@0.1.1 </tspan>
<tspan x="10" y="3466">  │   ├── from@0.1.7 </tspan>
<tspan x="10" y="3482">  │   ├── map-stream@0.1.0 </tspan>
<tspan x="10" y="3498">  │   ├── pause-stream@0.0.11 </tspan>
<tspan x="10" y="3514">  │   ├── split@0.3.3 </tspan>
<tspan x="10" y="3530">  │   ├── stream-combiner@0.0.4 </tspan>
<tspan x="10" y="3546">  │   └── through@2.3.8 </tspan>
<tspan x="10" y="3562">  ├─┬ react@0.14.9 </tspan>
<tspan x="10" y="3578">  │ ├─┬ envify@3.4.1 </tspan>
<tspan x="10" y="3594">  │ │ └─┬ jstransform@11.0.3 </tspan>
<tspan x="10" y="3610">  │ │   ├── base62@1.1.2 </tspan>
<tspan x="10" y="3626">  │ │   ├─┬ commoner@0.10.8 </tspan>
<tspan x="10" y="3642">  │ │   │ ├─┬ commander@2.9.0 </tspan>
<tspan x="10" y="3658">  │ │   │ │ └── graceful-readlink@1.0.1 </tspan>
<tspan x="10" y="3674">  │ │   │ ├─┬ detective@4.5.0 </tspan>
<tspan x="10" y="3690">  │ │   │ │ ├── acorn@4.0.11 </tspan>
<tspan x="10" y="3706">  │ │   │ │ └── defined@1.0.0 </tspan>
<tspan x="10" y="3722">  │ │   │ ├── glob@5.0.15 </tspan>
<tspan x="10" y="3738">  │ │   │ ├── iconv-lite@0.4.16 </tspan>
<tspan x="10" y="3754">  │ │   │ ├── private@0.1.7 </tspan>
<tspan x="10" y="3770">  │ │   │ ├── q@1.5.0 </tspan>
<tspan x="10" y="3786">  │ │   │ └─┬ recast@0.11.23 </tspan>
<tspan x="10" y="3802">  │ │   │   ├── ast-types@0.9.6 </tspan>
<tspan x="10" y="3818">  │ │   │   ├── esprima@3.1.3 </tspan>
<tspan x="10" y="3834">  │ │   │   └── source-map@0.5.6 </tspan>
<tspan x="10" y="3850">  │ │   ├── esprima-fb@15001.1.0-dev-harmony-fb </tspan>
<tspan x="10" y="3866">  │ │   ├── object-assign@2.1.1 </tspan>
<tspan x="10" y="3882">  │ │   └─┬ source-map@0.4.4 </tspan>
<tspan x="10" y="3898">  │ │     └── amdefine@1.0.1 </tspan>
<tspan x="10" y="3914">  │ └─┬ fbjs@0.6.1 </tspan>
<tspan x="10" y="3930">  │   ├── core-js@1.2.7 </tspan>
<tspan x="10" y="3946">  │   ├─┬ loose-envify@1.3.1 </tspan>
<tspan x="10" y="3962">  │   │ └── js-tokens@3.0.1 </tspan>
<tspan x="10" y="3978">  │   ├─┬ promise@7.1.1 </tspan>
<tspan x="10" y="3994">  │   │ └── asap@2.0.5 </tspan>
<tspan x="10" y="4010">  │   ├── ua-parser-js@0.7.12 </tspan>
<tspan x="10" y="4026">  │   └── whatwg-fetch@0.9.0 </tspan>
<tspan x="10" y="4042">  └── react-dom@0.14.9</tspan>
</text>
</svg>
